<?xml version="1.0" encoding="utf-8"?>
<!-- Generator: Adobe Illustrator 16.0.0, SVG Export Plug-In . SVG Version: 6.00 Build 0)  -->
<!DOCTYPE svg PUBLIC "-//W3C//DTD SVG 1.1//EN" "http://www.w3.org/Graphics/SVG/1.1/DTD/svg11.dtd">
<svg version="1.1" id="Layer_1" xmlns="http://www.w3.org/2000/svg" xmlns:xlink="http://www.w3.org/1999/xlink" x="0px" y="0px"
	 width="274.333px" height="132.667px" viewBox="0 0 274.333 132.667" enable-background="new 0 0 274.333 132.667"
	 xml:space="preserve">
<g>
	<path fill="#2B2422" d="M37.477,15.639H25.673H15.5V38.11c0,3.779,1.314,6.997,3.956,9.649c2.632,2.665,5.859,3.989,9.68,3.989
		h19.07h11.805h10.173V29.273c0-3.776-1.315-6.991-3.95-9.651c-2.638-2.656-5.861-3.983-9.682-3.983H37.833h-0.181H37.477
		L37.477,15.639z"/>
	<path fill="#2B2422" d="M109.238,15.639h11.807h10.174V38.11c0,3.779-1.319,6.997-3.952,9.649
		c-2.638,2.665-5.866,3.989-9.684,3.989h-19.07H86.705H76.532V29.273c0-3.776,1.318-6.991,3.953-9.651
		c2.638-2.656,5.865-3.983,9.691-3.983h18.709h0.178H109.238L109.238,15.639z"/>
	<path fill="#2B2422" d="M46.479,84.592h-8.548h-7.364v-16.28c0-2.734,0.954-5.064,2.858-6.986c1.911-1.928,4.249-2.887,7.016-2.887
		h13.807H62.8h7.364v16.276c0,2.734-0.948,5.069-2.861,6.99c-1.908,1.923-4.246,2.886-7.011,2.886H46.735h-0.13H46.479
		L46.479,84.592z"/>
</g>
<g>
	<path fill="#2B2422" d="M100.27,63.291c-8.244,0-16.381,2.499-22.132,8.354l6.838,6.835c3.468-3.256,8.459-5.428,13.885-5.428
		c6.946,0,11.933,3.369,11.933,9.771v1.406h-3.256c-13.651,0-32.761,0.79-32.761,18.116c0,10.306,9.33,15.62,18.986,15.62
		c6.942,0,13.017-2.601,16.704-8.457h0.327v7.163h11.718V86.724C122.512,79.346,122.512,63.291,100.27,63.291z M110.036,96.271
		c0,7.263-3.93,11.933-12.827,11.933c-4.232,0-9.262-2.063-9.262-6.836c0-7.483,10.642-8.027,19.376-8.027h2.712V96.271z"/>
	<polygon fill="#2B2422" points="221.357,88.679 203.353,64.589 219.192,64.589 229.603,80.214 240.89,64.589 255.75,64.589 
		237.957,88.679 258.896,116.67 243.057,116.67 229.499,98.006 215.827,116.67 200.421,116.67 	"/>
	<path fill="#2B2422" d="M205.712,91.605c0-18.121-9.878-28.317-24.413-28.317c-15.729,0-28.313,10.956-28.313,27.338
		c0,16.377,12.584,27.337,28.313,27.337c8.246,0,15.947-2.932,22.022-10.413l-9.325-7.049c-3.257,4.012-7.487,7.049-13.999,7.049
		c-7.271,0-13.128-4.665-13.992-12.36h39.707V91.605z M166.005,85.418c0.969-7.485,5.746-12.367,13.455-12.367
		c8.131,0,13.121,4.775,13.231,12.367H166.005z"/>
	<path fill="#2B2422" d="M158.874,112.972c-2.073-1.94-3.864-4.188-5.299-6.699c-0.353,0.154-1.7,0.68-3.285,0.68
		c-5.199,0-6.601-2.537-6.601-7.638V74.352h9.691v-9.762h-9.691v-10.56h-13.021v10.56h-5.665v9.78h5.665v25.008
		c0,13.046,4.917,18.587,17.039,18.587c5.171,0,10.625-2.073,12.752-3.63C159.918,113.893,159.387,113.444,158.874,112.972z"/>
</g>
</svg>
